<svg width="128" height="128" viewBox="0 0 128 128" fill="none" xmlns="http://www.w3.org/2000/svg">
<rect x="15.5" y="24.5" width="97" height="32" rx="8.5" stroke="black" stroke-width="3"/>
<rect x="43.0352" y="25.0001" width="5" height="36.1969" transform="rotate(37.5 43.0352 25.0001)" fill="black"/>
<rect x="29.967" y="23" width="5" height="26.2285" transform="rotate(37.5 29.967 23)" fill="black"/>
<rect x="109.658" y="35.2188" width="5" height="24.0776" transform="rotate(37.5 109.658 35.2188)" fill="black"/>
<rect x="58" y="25.0001" width="5" height="36.1969" transform="rotate(37.5 58 25.0001)" fill="black"/>
<rect x="73" y="25.0001" width="5" height="36.1969" transform="rotate(37.5 73 25.0001)" fill="black"/>
<rect x="88" y="25.0001" width="5" height="36.1969" transform="rotate(37.5 88 25.0001)" fill="black"/>
<rect x="103" y="25.0001" width="5" height="36.1969" transform="rotate(37.5 103 25.0001)" fill="black"/>
<rect x="15.5" y="71.5" width="97" height="32" rx="8.5" stroke="black" stroke-width="3"/>
<rect x="43.0352" y="72.0001" width="5" height="36.1969" transform="rotate(37.5 43.0352 72.0001)" fill="black"/>
<rect x="29.967" y="70.0002" width="5" height="26.2285" transform="rotate(37.5 29.967 70.0002)" fill="black"/>
<rect x="109.658" y="82.2189" width="5" height="24.0776" transform="rotate(37.5 109.658 82.2189)" fill="black"/>
<rect x="58" y="72.0001" width="5" height="36.1969" transform="rotate(37.5 58 72.0001)" fill="black"/>
<rect x="73" y="72.0001" width="5" height="36.1969" transform="rotate(37.5 73 72.0001)" fill="black"/>
<rect x="88" y="72.0001" width="5" height="36.1969" transform="rotate(37.5 88 72.0001)" fill="black"/>
<rect x="103" y="72.0001" width="5" height="36.1969" transform="rotate(37.5 103 72.0001)" fill="black"/>
</svg>
