<svg width="128" height="128" viewBox="0 0 128 128" fill="none" xmlns="http://www.w3.org/2000/svg">
<g clip-path="url(#clip0_297_2)">
<mask id="path-1-inside-1_297_2" fill="white">
<path fill-rule="evenodd" clip-rule="evenodd" d="M59 0H69V10.2284C94.833 12.6002 115.4 33.167 117.772 59H128V69H117.772C115.4 94.833 94.833 115.4 69 117.772V128H59V117.772C33.167 115.4 12.6002 94.833 10.2284 69H0V59H10.2284C12.6002 33.167 33.167 12.6002 59 10.2284V0Z"/>
</mask>
<path d="M69 0H79V-10H69V0ZM59 0V-10H49V0H59ZM69 10.2284H59V19.3524L68.0857 20.1865L69 10.2284ZM117.772 59L107.813 59.9143L108.648 69H117.772V59ZM128 59H138V49H128V59ZM128 69V79H138V69H128ZM117.772 69V59H108.648L107.813 68.0857L117.772 69ZM69 117.772L68.0857 107.813L59 108.648V117.772H69ZM69 128V138H79V128H69ZM59 128H49V138H59V128ZM59 117.772H69V108.648L59.9143 107.813L59 117.772ZM10.2284 69L20.1865 68.0857L19.3524 59H10.2284V69ZM0 69H-10V79H0V69ZM0 59V49H-10V59H0ZM10.2284 59V69H19.3524L20.1865 59.9143L10.2284 59ZM59 10.2284L59.9143 20.1865L69 19.3524V10.2284H59ZM69 -10H59V10H69V-10ZM79 10.2284V0H59V10.2284H79ZM68.0857 20.1865C89.1183 22.1175 105.882 38.8817 107.813 59.9143L127.73 58.0857C124.917 27.4523 100.548 3.08276 69.9143 0.270289L68.0857 20.1865ZM128 49H117.772V69H128V49ZM138 69V59H118V69H138ZM117.772 79H128V59H117.772V79ZM107.813 68.0857C105.882 89.1183 89.1183 105.882 68.0857 107.813L69.9143 127.73C100.548 124.917 124.917 100.548 127.73 69.9143L107.813 68.0857ZM79 128V117.772H59V128H79ZM59 138H69V118H59V138ZM49 117.772V128H69V117.772H49ZM59.9143 107.813C38.8817 105.882 22.1175 89.1183 20.1865 68.0857L0.270289 69.9143C3.08276 100.548 27.4523 124.917 58.0857 127.73L59.9143 107.813ZM0 79H10.2284V59H0V79ZM-10 59V69H10V59H-10ZM10.2284 49H0V69H10.2284V49ZM20.1865 59.9143C22.1175 38.8817 38.8817 22.1175 59.9143 20.1865L58.0857 0.270289C27.4523 3.08276 3.08276 27.4523 0.270289 58.0857L20.1865 59.9143ZM49 0V10.2284H69V0H49Z" fill="black" mask="url(#path-1-inside-1_297_2)"/>
<circle cx="64" cy="64" r="31" fill="black"/>
</g>
<defs>
<clipPath id="clip0_297_2">
<rect width="128" height="128" fill="white"/>
</clipPath>
</defs>
</svg>
