<svg width="128" height="128" viewBox="0 0 128 128" fill="none" xmlns="http://www.w3.org/2000/svg">
<path d="M63.848 113.121V45.8792" stroke="black" stroke-width="7" stroke-linecap="round"/>
<path d="M64.3573 75.7865C60.0803 76.9472 55.9603 62.5 43.196 66C36.3715 67.8714 32.901 78.9989 35.696 85.5C38.7777 92.6678 44.0462 99.8781 55.9604 96.765C67.8745 93.652 60.439 75.7419 64.3573 75.7865ZM64.3573 75.7865C56.4569 75.3555 52.3775 76.5177 48.8745 82.0352" stroke="black" stroke-width="7" stroke-linecap="round"/>
<path d="M63.6851 73.7841C67.9621 72.6234 72.0821 87.0705 84.8463 83.5705C91.6709 81.6992 95.1413 70.5716 92.3463 64.0705C89.2647 56.9028 83.9961 49.6925 72.082 52.8055C60.1679 55.9186 67.6034 73.8287 63.6851 73.7841ZM63.6851 73.7841C71.5854 74.2151 75.6648 73.0528 79.1679 67.5353" stroke="black" stroke-width="7" stroke-linecap="round"/>
<path d="M49 38.0907C54.3489 38.5516 60.8095 43.7603 62.85 45.5166C63.2291 45.8429 63.2848 46.3912 62.9657 46.7763C61.1528 48.9638 54.8797 55.4426 46.5 52.0908C39.8511 49.4312 34.7831 43.9652 32.8514 41.6569C32.4171 41.1379 32.6531 40.3777 33.3025 40.1874C36.1328 39.3579 43.0673 37.5796 49 38.0907Z" stroke="black" stroke-width="7" stroke-linecap="round"/>
<path d="M73.1666 30.4134C68.95 33.7365 66.4122 41.6378 65.6718 44.2262C65.5342 44.7071 65.7888 45.1959 66.2671 45.3424C68.9835 46.1747 77.7842 48.143 82.9456 40.7393C87.0408 34.8648 88.2736 27.5134 88.6199 24.5235C88.6978 23.8513 88.083 23.3456 87.4358 23.5433C84.615 24.4047 77.8435 26.7277 73.1666 30.4134Z" stroke="black" stroke-width="7" stroke-linecap="round"/>
</svg>
