<svg width="128" height="128" viewBox="0 0 128 128" fill="none" xmlns="http://www.w3.org/2000/svg">
<path d="M61.946 113.015V74.9852" stroke="black" stroke-width="7" stroke-linecap="round"/>
<path d="M60.3573 75.7865C56.0803 76.9472 51.9603 62.5 39.196 66C32.3715 67.8714 28.901 78.9989 31.696 85.5C34.7777 92.6678 40.0462 99.8781 51.9604 96.765C63.8745 93.652 56.439 75.7419 60.3573 75.7865ZM60.3573 75.7865C52.4569 75.3555 48.3775 76.5177 44.8745 82.0352" stroke="black" stroke-width="7" stroke-linecap="round"/>
<path d="M59.6851 73.7841C63.9621 72.6234 68.0821 87.0705 80.8463 83.5705C87.6709 81.6992 91.1413 70.5716 88.3463 64.0705C85.2647 56.9028 79.9961 49.6925 68.082 52.8055C56.1679 55.9186 63.6034 73.8287 59.6851 73.7841ZM59.6851 73.7841C67.5854 74.2151 71.6648 73.0528 75.1679 67.5353" stroke="black" stroke-width="7" stroke-linecap="round"/>
</svg>
