<svg width="128" height="128" viewBox="0 0 128 128" fill="none" xmlns="http://www.w3.org/2000/svg">
<path d="M64.5873 82.0237C64.5873 82.0237 60.0873 66.0237 77.5873 54.0237C95.0873 42.0237 115.087 47.0237 115.087 47.0237C115.087 47.0237 109.587 65.5238 97.0873 75.5237C84.5873 85.5237 64.5873 82.0237 64.5873 82.0237ZM64.5873 82.0237C71.4476 71.9419 76.6564 67.8121 89.5873 64.5237" stroke="black" stroke-width="7" stroke-linecap="round"/>
<path d="M62.5 59.0331C62.5 59.0331 67 43.0331 49.5 31.0331C32 19.0331 12 24.0331 12 24.0331C12 24.0331 17.5 42.5331 30 52.5331C42.5 62.5331 62.5 59.0331 62.5 59.0331ZM62.5 59.0331C55.6397 48.9512 50.4309 44.8214 37.5 41.5331" stroke="black" stroke-width="7" stroke-linecap="round"/>
<path d="M63.5682 59.9907L64 113" stroke="black" stroke-width="7" stroke-linecap="round"/>
<path d="M63.5682 59.9907C63.5682 53.9907 64.2037 48.5428 68.5682 45.4907" stroke="black" stroke-width="7" stroke-linecap="round"/>
<path d="M49 75.0907C54.3489 75.5516 60.8095 80.7603 62.85 82.5166C63.2291 82.8429 63.2848 83.3912 62.9657 83.7763C61.1528 85.9638 54.8797 92.4426 46.5 89.0908C39.8511 86.4312 34.7831 80.9652 32.8514 78.6569C32.4171 78.1379 32.6531 77.3777 33.3025 77.1874C36.1328 76.3579 43.0673 74.5796 49 75.0907Z" stroke="black" stroke-width="7" stroke-linecap="round"/>
<path d="M76.1666 31.4134C71.95 34.7365 69.4122 42.6378 68.6718 45.2262C68.5342 45.7071 68.7888 46.1959 69.2671 46.3424C71.9835 47.1747 80.7842 49.143 85.9456 41.7393C90.0408 35.8648 91.2736 28.5134 91.6199 25.5235C91.6978 24.8513 91.083 24.3456 90.4358 24.5433C87.615 25.4047 80.8435 27.7277 76.1666 31.4134Z" stroke="black" stroke-width="7" stroke-linecap="round"/>
</svg>
