<?xml version="1.0" standalone="no"?>
<!DOCTYPE svg PUBLIC "-//W3C//DTD SVG 20010904//EN"
 "http://www.w3.org/TR/2001/REC-SVG-20010904/DTD/svg10.dtd">
<svg version="1.0" xmlns="http://www.w3.org/2000/svg"
 width="2661.000000pt" height="2704.000000pt" viewBox="0 0 2661.000000 2704.000000"
 preserveAspectRatio="xMidYMid meet">

<g transform="translate(0.000000,2704.000000) scale(0.100000,-0.100000)"
fill="#000000" stroke="none">
<path d="M3252 27013 c3 -17 567 -18 11656 -21 l11652 -2 0 -13475 0 -13475
-13246 0 -13246 0 6 38 c3 20 726 6065 1606 13432 880 7367 1603 13410 1606
13428 5 31 3 33 -18 30 l-23 -3 -1608 -13460 c-885 -7403 -1613 -13462 -1618
-13463 -5 -2 -9 -12 -9 -23 0 -19 199 -19 13285 -19 11802 0 13285 2 13285 15
0 8 5 15 10 15 7 0 10 4502 10 13486 0 11674 -2 13487 -14 13500 -13 12 -1583
14 -11676 14 -11101 0 -11661 -1 -11658 -17z"/>
</g>
</svg>
