<svg width="128" height="128" viewBox="0 0 128 128" fill="none" xmlns="http://www.w3.org/2000/svg">
<mask id="path-1-inside-1_113_61" fill="white">
<path fill-rule="evenodd" clip-rule="evenodd" d="M76.1758 4.01864C71.5157 1.45707 66.1627 0 60.4694 0C49.1766 0 39.2226 5.7327 33.3591 14.4467C16.3956 15.624 3 29.7579 3 47.0205C3 65.0543 17.6193 79.6736 35.6531 79.6736C38.3092 79.6736 40.8913 79.3564 43.3635 78.758C46.6207 80.7651 50.2572 82.2162 54.1405 82.9789L51.3267 128H74.8369L71.9321 81.5232C73.6246 80.8886 75.2504 80.1175 76.796 79.2234C81.5989 82.0017 87.175 83.5918 93.1226 83.5918C111.156 83.5918 125.776 68.9725 125.776 50.9387C125.776 38.2185 118.502 27.1971 107.887 21.8066C102.497 11.1917 91.4755 3.91825 78.7552 3.91825C77.8871 3.91825 77.0269 3.95213 76.1758 4.01864Z"/>
</mask>
<path d="M76.1758 4.01864L72.3222 11.0293L74.4165 12.1805L76.7991 11.9943L76.1758 4.01864ZM33.3591 14.4467L33.913 22.4275L37.8135 22.1568L39.9963 18.9129L33.3591 14.4467ZM43.3635 78.758L47.5603 71.9472L44.7218 70.1981L41.4812 70.9826L43.3635 78.758ZM54.1405 82.9789L62.1249 83.4779L62.5623 76.4802L55.6823 75.1289L54.1405 82.9789ZM51.3267 128L43.3423 127.501L42.8111 136H51.3267V128ZM74.8369 128V136H83.3525L82.8213 127.501L74.8369 128ZM71.9321 81.5232L69.1234 74.0325L63.5783 76.1116L63.9477 82.0222L71.9321 81.5232ZM76.796 79.2234L80.8018 72.2985L76.796 69.9813L72.7902 72.2985L76.796 79.2234ZM107.887 21.8066L100.754 25.4289L101.937 27.7571L104.265 28.9395L107.887 21.8066ZM80.0294 -2.99203C74.2185 -6.18619 67.5438 -8 60.4694 -8V8C64.7816 8 68.8129 9.10033 72.3222 11.0293L80.0294 -2.99203ZM60.4694 -8C46.4023 -8 34.0084 -0.848303 26.7218 9.98056L39.9963 18.9129C44.4369 12.3137 51.9508 8 60.4694 8V-8ZM32.8052 6.46591C11.6779 7.93219 -5 25.5252 -5 47.0205H11C11 33.9906 21.1134 23.3158 33.913 22.4275L32.8052 6.46591ZM-5 47.0205C-5 69.4726 13.201 87.6736 35.6531 87.6736V71.6736C22.0376 71.6736 11 60.636 11 47.0205H-5ZM35.6531 87.6736C38.9481 87.6736 42.1619 87.2799 45.2457 86.5334L41.4812 70.9826C39.6206 71.433 37.6703 71.6736 35.6531 71.6736V87.6736ZM39.1666 85.5687C43.2227 88.0681 47.7561 89.8778 52.5987 90.8289L55.6823 75.1289C52.7583 74.5546 50.0188 73.4621 47.5603 71.9472L39.1666 85.5687ZM46.1561 82.4799L43.3423 127.501L59.3111 128.499L62.1249 83.4779L46.1561 82.4799ZM51.3267 136H74.8369V120H51.3267V136ZM82.8213 127.501L79.9165 81.0242L63.9477 82.0222L66.8525 128.499L82.8213 127.501ZM74.7408 89.0139C76.8511 88.2226 78.877 87.2617 80.8018 86.1482L72.7902 72.2985C71.6237 72.9734 70.398 73.5545 69.1234 74.0325L74.7408 89.0139ZM72.7902 86.1482C78.7779 89.6119 85.7312 91.5918 93.1226 91.5918V75.5918C88.6189 75.5918 84.4199 74.3915 80.8018 72.2985L72.7902 86.1482ZM93.1226 91.5918C115.575 91.5918 133.776 73.3908 133.776 50.9387H117.776C117.776 64.5543 106.738 75.5918 93.1226 75.5918V91.5918ZM133.776 50.9387C133.776 35.0905 124.705 21.3748 111.51 14.6736L104.265 28.9395C112.299 33.0194 117.776 41.3465 117.776 50.9387H133.776ZM78.7552 11.9182C88.3475 11.9182 96.6746 17.3949 100.754 25.4289L115.02 18.1843C108.319 4.98852 94.6035 -4.08175 78.7552 -4.08175V11.9182ZM76.7991 11.9943C77.443 11.944 78.0953 11.9182 78.7552 11.9182V-4.08175C77.6789 -4.08175 76.6107 -4.03974 75.5525 -3.95705L76.7991 11.9943Z" fill="black" mask="url(#path-1-inside-1_113_61)"/>
</svg>
